<svg id="INDmenu-btn-moveArrow" version="1.2" baseProfile="tiny" xmlns="http://www.w3.org/2000/svg" xmlns:xlink="http://www.w3.org/1999/xlink" x="0px" y="0px" width="52" height="52" viewBox="0 0 52 52" xml:space="preserve">
				<path fill="#FFFFFF" d="M25.904,13.439c-0.189,0.022-0.364,0.109-0.498,0.244l-3.352,3.352c-0.346,0.307-0.378,0.836-0.07,1.183
					c0.307,0.347,0.836,0.378,1.182,0.071c0.027-0.023,0.053-0.049,0.076-0.076l1.92-1.92v6.361C25.156,23.098,25.557,23.51,26,23.51
					c0.442,0,0.844-0.412,0.838-0.855v-6.361l1.92,1.92c0.305,0.348,0.834,0.385,1.183,0.08s0.384-0.834,0.079-1.182
					c-0.023-0.027-0.049-0.053-0.075-0.076l-3.351-3.352C26.414,13.502,26.159,13.41,25.904,13.439z M17.525,21.809
					c-0.189,0.025-0.365,0.114-0.496,0.253l-3.352,3.351c-0.323,0.326-0.323,0.853,0,1.178l3.352,3.353
					c0.304,0.348,0.833,0.384,1.182,0.079c0.348-0.304,0.385-0.833,0.08-1.182c-0.023-0.026-0.049-0.053-0.075-0.077l-1.921-1.919h6.354
					c0.443,0.008,0.848-0.395,0.848-0.838c0-0.441-0.404-0.844-0.848-0.838h-6.354l1.921-1.928c0.331-0.324,0.337-0.854,0.015-1.186
					C18.047,21.867,17.787,21.775,17.525,21.809z M34.283,21.809c-0.462,0.05-0.794,0.463-0.745,0.922
					c0.02,0.193,0.108,0.373,0.247,0.51l1.919,1.928h-6.354c-0.029,0-0.058,0-0.086,0c-0.439,0.023-0.818,0.443-0.795,0.882
					c0.022,0.438,0.443,0.816,0.881,0.794h6.354l-1.919,1.919c-0.348,0.309-0.38,0.838-0.073,1.184c0.308,0.347,0.838,0.379,1.184,0.072
					c0.027-0.025,0.053-0.05,0.075-0.076l3.353-3.353c0.322-0.325,0.322-0.852,0-1.178l-3.353-3.351
					C34.793,21.875,34.538,21.782,34.283,21.809z M25.992,28.502c-0.442,0.005-0.839,0.413-0.83,0.855v6.353l-1.92-1.919
					c-0.178-0.187-0.433-0.279-0.689-0.254c-0.46,0.05-0.793,0.463-0.744,0.923c0.021,0.193,0.107,0.372,0.246,0.509l3.352,3.352
					c0.327,0.327,0.857,0.328,1.186,0.001c0,0,0.001-0.001,0.002-0.001l3.351-3.352c0.347-0.307,0.379-0.836,0.072-1.183
					s-0.838-0.379-1.184-0.071c-0.027,0.023-0.053,0.049-0.075,0.076l-1.92,1.919v-6.353C26.848,28.91,26.438,28.498,25.992,28.502z" stroke-width="14px"></path>
			</svg>